<svg width="400" height="400" viewBox="0 0 400 400" fill="none" xmlns="http://www.w3.org/2000/svg">
<rect width="400" height="400" rx="200" fill="white"/>
<path d="M159.973 229.337V144.521C159.973 144.521 161.089 123.596 156.346 123.596C152.44 123.596 149.65 132.803 141.838 152.891L89.107 284.858H52L104.452 152.891C120.076 110.483 133.747 89 161.368 89C180.898 89 194.569 108.809 194.569 144.521V229.337C194.569 229.337 193.174 250.262 197.917 250.262C201.265 250.262 203.776 243.287 209.356 229.058H209.077L239.488 152.891C255.112 110.483 268.783 89 296.404 89C315.934 89 329.605 108.809 329.605 144.521V284.858H295.009V144.521C295.009 144.521 296.125 123.596 291.382 123.596C287.476 123.596 284.686 132.803 276.874 152.891L249.532 221.525C234.187 263.654 220.237 284.858 192.895 284.858C173.365 284.858 159.973 264.77 159.973 229.337Z" fill="#6366F1"/>
</svg>
